HIERARCHY
ROOT Hips
{
	OFFSET 0.000000 0.000000 0.000000
	CHANNELS 6 Xposition Yposition Zposition Zrotation Yrotation Xrotation 
	JOINT LeftUpLeg_virtual
	{
		OFFSET 0.000000 0.000000 0.000000
		CHANNELS 3 Zrotation Yrotation Xrotation
		JOINT LeftUpLeg
		{
			OFFSET 8.479694 -4.795517 -0.379053
			CHANNELS 3 Zrotation Yrotation Xrotation
			JOINT LeftLeg
			{
				OFFSET 0.485052 -32.551468 0.112863
				CHANNELS 3 Zrotation Yrotation Xrotation
				JOINT LeftFoot
				{
					OFFSET 0.438033 -32.635670 -3.012641
					CHANNELS 3 Zrotation Yrotation Xrotation
					JOINT LeftToeBase
					{
						OFFSET 0.970169 -13.225353 11.864223
						CHANNELS 3 Zrotation Yrotation Xrotation
						End Site
						{
							OFFSET 0.000000 0.000000 0.000000
						}
					}
				}
			}
		}
	}
	JOINT RightUpLeg_virtual
	{
		OFFSET 0.000000 0.000000 0.000000
		CHANNELS 3 Zrotation Yrotation Xrotation
		JOINT RightUpLeg
		{
			OFFSET -8.479694 -4.795517 -0.379053
			CHANNELS 3 Zrotation Yrotation Xrotation
			JOINT RightLeg
			{
				OFFSET -0.484100 -32.551483 0.112903
				CHANNELS 3 Zrotation Yrotation Xrotation
				JOINT RightFoot
				{
					OFFSET -0.438985 -32.635651 -3.012681
					CHANNELS 3 Zrotation Yrotation Xrotation
					JOINT RightToeBase
					{
						OFFSET -0.970169 -13.225354 11.864223
						CHANNELS 3 Zrotation Yrotation Xrotation
						End Site
						{
							OFFSET 0.000000 0.000000 0.000000
						}
					}
				}
			}
		}
	}
	JOINT Spine_virtual
	{
		OFFSET 0.000000 0.000000 0.000000
		CHANNELS 3 Zrotation Yrotation Xrotation
		JOINT Spine
		{
			OFFSET 0.000000 7.722015 1.166203
			CHANNELS 3 Zrotation Yrotation Xrotation
			JOINT Spine1
			{
				OFFSET 0.000000 12.024086 0.248766
				CHANNELS 3 Zrotation Yrotation Xrotation
				JOINT Spine2
				{
					OFFSET -0.000000 11.503036 -0.491240
					CHANNELS 3 Zrotation Yrotation Xrotation
					JOINT Neck_virtual
					{
						OFFSET 0.000000 0.000000 0.000000
						CHANNELS 3 Zrotation Yrotation Xrotation
						JOINT Neck
						{
							OFFSET 0.000000 18.430687 -3.123054
							CHANNELS 3 Zrotation Yrotation Xrotation
							JOINT Head
							{
								OFFSET -0.000000 9.051071 1.034021
								CHANNELS 3 Zrotation Yrotation Xrotation
								End Site
								{
									OFFSET 0.000000 0.000000 0.000000
								}
							}
						}
					}
					JOINT LeftShoulder_virtual
					{
						OFFSET 0.000000 0.000000 0.000000
						CHANNELS 3 Zrotation Yrotation Xrotation
						JOINT LeftShoulder
						{
							OFFSET 6.197824 13.665230 -4.064723
							CHANNELS 3 Zrotation Yrotation Xrotation
							JOINT LeftArm
							{
								OFFSET 7.778132 -0.187073 -1.709282
								CHANNELS 3 Zrotation Yrotation Xrotation
								JOINT LeftForeArm
								{
									OFFSET 21.954697 0.000000 -2.041093
									CHANNELS 3 Zrotation Yrotation Xrotation
									JOINT LeftHand
									{
										OFFSET 22.992908 0.000000 -0.870901
										CHANNELS 3 Zrotation Yrotation Xrotation
										End Site
										{
											OFFSET 0.000000 0.000000 0.000000
										}
									}
								}
							}
						}
					}
					JOINT RightShoulder_virtual
					{
						OFFSET 0.000000 0.000000 0.000000
						CHANNELS 3 Zrotation Yrotation Xrotation
						JOINT RightShoulder
						{
							OFFSET -6.197824 13.665230 -4.064723
							CHANNELS 3 Zrotation Yrotation Xrotation
							JOINT RightArm
							{
								OFFSET -7.778132 -0.187073 -1.709282
								CHANNELS 3 Zrotation Yrotation Xrotation
								JOINT RightForeArm
								{
									OFFSET -21.954697 0.000000 -2.041093
									CHANNELS 3 Zrotation Yrotation Xrotation
									JOINT RightHand
									{
										OFFSET -22.992908 0.000000 -0.870901
										CHANNELS 3 Zrotation Yrotation Xrotation
										End Site
										{
											OFFSET 0.000000 0.000000 0.000000
										}
									}
								}
							}
						}
					}
				}
			}
		}
	}
}
MOTION
Frames: 8
Frame Time: 0.033333
39.034470 70.978714 68.847023 179.729243 -39.577859 179.680803 -1.306293 -2.430029 2.737922 6.102871 23.788313 -51.175923 2.681440 3.317347 47.508661 -10.157339 -13.587504 -3.950082 0.000000 0.000000 0.000000 1.393191 -3.247173 3.640042 -0.977880 -18.034037 -33.306653 3.983713 3.920876 70.985200 4.139229 8.644314 -24.796281 0.000000 0.000000 0.000000 1.607298 -1.559804 -4.457245 -2.119996 4.310781 -3.400332 -0.980899 -1.948506 7.375097 0.018846 0.085235 -0.093922 -0.804392 -1.125704 8.348775 -6.753354 11.843061 -4.686643 0.000000 0.000000 0.000000 0.732513 -0.710430 5.100197 4.267673 -2.110759 -4.253407 -16.810825 -23.239978 -31.519916 -170.899557 -77.139405 -158.079100 0.000000 0.000000 0.000000 -3.486664 1.048588 4.553673 39.335370 16.791081 1.521058 -10.498580 51.948383 -19.278728 168.644952 80.414768 168.855704 0.000000 0.000000 0.000000 
39.134731 70.995384 68.755058 179.767861 -40.046376 179.628894 -1.356335 -2.913873 2.483505 6.674539 23.353429 -50.758530 2.331909 2.938051 47.380230 -9.929361 -13.427946 -3.928242 0.000000 0.000000 0.000000 1.460117 -3.531165 3.324957 -0.987008 -18.000335 -32.797441 3.885321 3.841896 70.860221 4.071741 8.526355 -24.988404 0.000000 0.000000 0.000000 1.412382 -1.753810 -4.800005 -2.168578 4.347590 -3.287689 -0.969962 -1.691316 7.312118 0.052401 0.182979 -0.089099 -0.870358 -0.938724 8.250568 -6.771830 11.607334 -4.623826 0.000000 0.000000 0.000000 0.684830 -0.544064 5.030305 3.882485 -1.933648 -4.219052 -16.200012 -24.393971 -31.790801 -171.433664 -76.943133 -157.678578 0.000000 0.000000 0.000000 -3.541884 1.112053 4.459637 38.457715 16.470472 1.280961 -8.788249 52.019510 -18.850765 169.298820 79.951216 169.410780 0.000000 0.000000 0.000000 
39.220570 70.979706 68.696663 179.808077 -40.493381 179.644111 -1.378002 -3.557344 2.174604 7.259244 22.743352 -50.401465 2.055703 2.464808 47.340533 -9.641413 -13.228601 -3.835715 0.000000 0.000000 0.000000 1.490454 -3.895037 2.930616 -0.917772 -17.955130 -32.289781 3.787219 3.781913 70.760200 3.956648 8.439762 -25.277721 0.000000 0.000000 0.000000 1.225690 -2.179609 -5.251598 -2.219706 4.402527 -3.130054 -0.983841 -1.473750 7.268090 0.040873 0.115946 -0.076430 -0.864783 -0.579002 8.230483 -6.793581 11.714141 -4.512572 0.000000 0.000000 0.000000 0.722833 -0.239929 4.922887 3.424284 -1.667477 -3.932176 -15.318593 -25.673569 -32.373331 -172.190380 -76.653410 -156.995204 0.000000 0.000000 0.000000 -3.510185 1.428198 4.440513 37.388527 16.140367 0.877808 -6.829951 51.940078 -18.698645 170.086996 79.092300 170.017383 0.000000 0.000000 0.000000 
39.274734 70.943001 68.669945 179.807175 -40.960344 179.723109 -1.156379 -4.129403 1.834221 7.195073 21.944611 -50.255542 1.143232 0.772400 47.294053 -8.465810 -12.761903 -3.805282 0.000000 0.000000 0.000000 1.454913 -4.411579 2.509530 -0.810862 -17.929520 -31.831629 3.705388 3.742971 70.681407 3.810285 8.437679 -25.603685 0.000000 0.000000 0.000000 1.003225 -2.647111 -5.752206 -2.295466 4.433011 -2.906781 -0.976174 -1.228284 7.263018 0.027633 0.112772 -0.084018 -0.934875 -0.551535 8.253697 -6.899516 11.742085 -4.470600 0.000000 0.000000 0.000000 0.704441 0.001937 4.970806 3.256288 -1.451827 -3.988302 -14.530237 -27.254548 -32.742346 -172.584113 -76.394457 -156.620650 0.000000 0.000000 0.000000 -3.570431 1.788822 4.291586 36.209596 15.543289 0.547777 -5.338462 51.572983 -19.573065 171.461722 77.949438 171.136701 0.000000 0.000000 0.000000 
39.335270 70.898140 68.652435 179.811751 -41.286226 179.822789 -1.066391 -4.695950 1.570785 7.322986 21.176747 -50.077943 1.635605 0.292033 47.398255 -9.226350 -12.155893 -3.394719 0.000000 0.000000 0.000000 1.372079 -4.898064 2.086144 -0.742354 -17.878587 -31.433811 3.630182 3.770941 70.600565 3.586575 8.460016 -25.964783 0.000000 0.000000 0.000000 0.821964 -3.063194 -6.238498 -2.400799 4.414913 -2.637021 -1.010478 -1.025208 7.263023 0.035286 0.119115 -0.063651 -0.962857 -0.241227 8.294437 -6.900481 11.464465 -4.474855 0.000000 0.000000 0.000000 0.735662 0.084295 4.945596 3.070174 -1.042328 -3.873968 -13.451644 -29.040916 -33.645389 -172.363649 -75.935632 -156.793741 0.000000 0.000000 0.000000 -3.622414 1.895822 4.272362 34.795641 15.025924 0.133473 -4.123165 51.347334 -20.959827 172.652757 76.387538 171.975899 0.000000 0.000000 0.000000 
39.413921 70.867584 68.655029 179.833471 -41.723843 179.934763 -0.936134 -5.230980 1.445517 7.837611 20.101296 -49.869612 1.793403 0.499231 47.386001 -9.288561 -11.739162 -2.879446 0.000000 0.000000 0.000000 1.290638 -5.420398 1.771369 -0.692232 -17.862246 -31.142285 3.547009 3.794739 70.502961 3.298443 8.521038 -26.249612 0.000000 0.000000 0.000000 0.676136 -3.489091 -6.594547 -2.565832 4.412919 -2.406148 -1.054277 -0.869249 7.299352 0.057805 0.061235 -0.006199 -0.977927 -0.140702 8.288893 -6.928462 11.544136 -4.555688 0.000000 0.000000 0.000000 0.670149 0.374623 5.003091 2.935266 -0.921389 -3.688786 -12.277729 -30.627244 -34.669798 -172.201732 -75.490714 -156.852753 0.000000 0.000000 0.000000 -3.658059 2.107527 4.243231 33.412773 14.447064 -0.390129 -2.707806 51.212075 -22.462713 173.522267 74.525642 172.477863 0.000000 0.000000 0.000000 
39.551868 70.850922 68.680901 179.770934 -41.724222 -179.911376 -0.879671 -5.365521 1.346678 8.398328 19.317716 -49.797075 1.622027 0.567391 47.197884 -9.156503 -11.574013 -2.444831 0.000000 0.000000 0.000000 1.302394 -5.388916 1.533024 -0.596317 -17.867896 -31.004947 3.475416 3.795674 70.432501 2.954256 8.598152 -26.598553 0.000000 0.000000 0.000000 0.542623 -3.655641 -6.719376 -2.772917 4.492545 -2.237865 -1.119244 -0.667215 7.313442 0.077642 0.109652 -0.004863 -1.073368 0.024695 8.409242 -7.021825 11.549147 -4.689006 0.000000 0.000000 0.000000 0.601235 0.372135 5.132290 3.017657 -0.462589 -3.496905 -11.323894 -32.130501 -35.887436 -172.112912 -74.982937 -156.791541 0.000000 0.000000 0.000000 -3.780135 2.299526 4.323243 32.088348 13.943371 -0.608363 -1.747727 51.186046 -24.137146 174.433278 72.599269 173.014210 0.000000 0.000000 0.000000 
39.756603 70.851212 68.746071 179.834236 -42.364761 -179.908631 -0.852124 -5.675036 1.355886 8.796854 18.983382 -49.835543 1.083882 0.683942 46.724016 -9.100067 -11.408215 -1.895094 0.000000 0.000000 0.000000 1.406435 -5.648058 1.493265 -0.419977 -17.970272 -31.000699 3.367747 3.724524 70.306866 2.519093 8.583700 -26.933231 0.000000 0.000000 0.000000 0.443276 -3.691394 -6.515904 -3.024361 4.444956 -2.119329 -1.237158 -0.638264 7.384706 0.031481 0.069678 -0.011269 -1.182293 0.144560 8.615725 -7.100267 11.615954 -4.739006 0.000000 0.000000 0.000000 0.571447 0.409302 5.263455 3.151041 0.090459 -3.402367 -10.398933 -33.368821 -37.402054 -172.166625 -74.597742 -156.557908 0.000000 0.000000 0.000000 -3.851725 2.340364 4.430191 30.896562 13.371719 -1.020870 -0.816590 51.355127 -25.482295 174.950569 70.892644 173.211753 0.000000 0.000000 0.000000 
